<svg version="1.2" xmlns="http://www.w3.org/2000/svg" viewBox="0 0 384 512" width="384" height="512"><style>.a{fill:#539bf5}</style><path fill-rule="evenodd" class="a" d="m0 243.2v-137.2c0-6.4 2.5-12.5 7-17l9-9-14.3-28.4c-1.1-2.4-1.7-5-1.7-7.6 0-6.6 5.4-12 12-12h148.1c105.9 0 191.8 86.9 191.8 192v192h-319.9v-14.5c0-30.4 17.1-58 44.2-71.6l57.2-28.7c16.2-8.1 26.6-24.7 26.6-42.8v-50.4l-22.1 11.1c-6.4 3.1-10.9 8.8-12.7 15.7l-9.2 30.6c-2.8 9.4-9.6 16.9-18.8 20.5l-12.7 5.1c-3.8 1.5-7.8 2.3-11.8 2.3-4.5 0-8.9-1-13.1-2.8l-40.6-18c-11.5-5.1-19-16.6-19-29.3zm32-95.2c0 11 9 20 20 20 11 0 20-9 20-20 0-11-9-20-20-20-11 0-20 9-20 20zm352 348c0 8.8-7.2 16-16 16h-352c-8.8 0-16-7.2-16-16.9 0-25.6 21.5-47.1 47.1-47.1h288.9c26.5 0 48 21.5 48 48z"/></svg>