<svg version="1.2" xmlns="http://www.w3.org/2000/svg" viewBox="0 0 512 512" width="512" height="512"><style>.a{fill:#539bf5}</style><path fill-rule="evenodd" class="a" d="m512 304c0 61.8-50.3 112-112 112h-16c0 53-43 96-96 96h-192c-53 0-96-43-96-96v-192c0-17.7 14.3-32 32-32h368c61.8 0 112 50.3 112 112zm-64 0c0-26.5-21.5-48-48-48h-16v96h16c26.5 0 48-21.5 48-48zm-384-279.7c0-13.3 10.8-24.2 24-24.2 13.3 0 24 10.9 24 24.2 0 14.3 7.7 27.7 20.1 34.9 27.1 15.9 43.9 45.2 43.9 76.5 0 12.4-10.8 24.2-24 24.2-13.3 0-24-10.7-24-23.9 0-14.6-7.7-28.9-20.1-35.3-27.1-15.8-43.9-45.1-43.9-76.4zm112 0c0-13.3 10.8-24.2 24-24.2 13.3 0 24 10.9 24 24.2 0 14.3 7.7 27.7 20.1 34.9 27.1 15.9 43.9 45.2 43.9 76.5 0 12.4-10.8 24.2-24 24.2-13.3 0-24-10.7-24-23.9 0-14.6-7.7-28.9-20.1-35.3-27.1-15.8-43.9-45.1-43.9-76.4z"/></svg>