<svg version="1.2" xmlns="http://www.w3.org/2000/svg" viewBox="0 0 512 512" width="512" height="512"><style>.a{fill:#539bf5}</style><path fill-rule="evenodd" class="a" d="m399.5 406.3l-379.1 105.1c-5.5 1.6-11.5 0-15.6-4.1-4.1-4-5.7-10-4.3-15.6l99.9-379.4c176.1 1.8 294.9 119.1 299.1 294zm-240.4-22.3c0-16.7-14.4-31.1-32-31.1-17.6 0-32 14.4-32 32 0 16.7 14.4 31.1 32 31.1 18.5 0 32.9-14.4 32-32zm352.6-39c1.9 16.2-7.9 31.5-23.6 35.9l-56.9 15.7c-8-185.5-134.9-310.6-322.5-316.1l14.8-56.2c4.2-15.7 19.3-25.7 35.4-24.2 181.9 17.3 332 165 352.8 344.9zm-207.7-9c0-17.6-14.4-32-32-32-17.6 0-32 14.4-32 32 0 16.7 14.4 31.1 32 31.1 17.6 0 32-13.5 32-31.1zm-96.9-96.9c0-16.7-14.4-31.1-32-31.1-17.6 0-32 13.5-32 31.1 0 17.6 14.4 32 32 32 18.5 0 32.9-13.5 32-32z"/></svg>