<svg version="1.2" xmlns="http://www.w3.org/2000/svg" viewBox="0 0 640 512" width="640" height="512"><style>.a{fill:#539bf5}</style><path class="a" d="m484.6 62c18-9.2 38-14 58.2-14h57.4c27 0 45.7 27 36.2 52.2-18.2 48.7-54.3 88.7-100.8 112l-272.8 136.4c-4.5 2.2-9.4 3.4-14.4 3.4h-137.7c-9.3 0-18.2-4.1-24.3-11.2l-73.1-85.2c-6.7-7.9-4.3-20.1 5-24.8l32.2-16c8.5-4.3 18.6-4.6 27.3-0.7l57.3 25 99.5-49.4-147-94.5c-10.4-6.7-9.6-22.2 1.5-27.8l45.9-22.9c15.1-8 34.5-9 51.1-2.7l194.9 73.1zm-484.6 418c0-17.7 14.3-32 32-32h576c17.7 0 32 14.3 32 32 0 17.7-14.3 32-32 32h-576c-17.7 0-32-14.3-32-32z"/></svg>